<svg width="207" height="57" viewBox="0 0 207 57" fill="none" xmlns="http://www.w3.org/2000/svg">
<path d="M20.25 13.3125L9 21.75C8.0625 22.4625 7.5 23.5687 7.5 24.75V41.625C7.5 43.6875 9.1875 45.375 11.25 45.375H33.75C35.8125 45.375 37.5 43.6875 37.5 41.625V24.75C37.5 23.5687 36.9375 22.4625 36 21.75L24.75 13.3125C24.0997 12.8285 23.3106 12.5671 22.5 12.5671C21.6894 12.5671 20.9003 12.8285 20.25 13.3125ZM23.4375 29.4375C23.4375 30.9937 22.1812 32.25 20.625 32.25V38.8125C20.625 39.3375 20.2125 39.75 19.6875 39.75C19.1625 39.75 18.75 39.3375 18.75 38.8125V32.25C17.1937 32.25 15.9375 30.9937 15.9375 29.4375V24.75C15.9375 24.225 16.35 23.8125 16.875 23.8125C17.4 23.8125 17.8125 24.225 17.8125 24.75V29.4375H18.75V24.75C18.75 24.225 19.1625 23.8125 19.6875 23.8125C20.2125 23.8125 20.625 24.225 20.625 24.75V29.4375H21.5625V24.75C21.5625 24.225 21.975 23.8125 22.5 23.8125C23.025 23.8125 23.4375 24.225 23.4375 24.75V29.4375ZM27.1875 39.75C26.6625 39.75 26.25 39.3375 26.25 38.8125V33.1875H25.3125C24.7875 33.1875 24.375 32.775 24.375 32.25V27.5625C24.375 25.9125 25.4437 24.5062 26.925 24.0187C27.5062 23.8125 28.125 24.2812 28.125 24.9187V38.8125C28.125 39.3375 27.7125 39.75 27.1875 39.75Z" fill="#EAB62F"/>
<path d="M75.52 45.572C75.7333 45.572 75.8933 45.6787 76 45.892C76.128 46.1267 76.192 46.4253 76.192 46.788C76.192 47.4707 76.0107 48.1427 75.648 48.804C74.9227 50.1267 73.9627 51.14 72.768 51.844C71.5947 52.5693 70.3893 52.932 69.152 52.932C67.8933 52.932 66.8373 52.7293 65.984 52.324C65.1307 51.94 64.4053 51.3533 63.808 50.564C63.2107 49.796 62.6347 48.772 62.08 47.492C61.504 46.1693 61.024 45.1773 60.64 44.516C60.2773 43.876 59.8933 43.4067 59.488 43.108C59.0827 42.8093 58.56 42.596 57.92 42.468C55.552 41.9987 53.6427 40.8253 52.192 38.948C50.7627 37.0707 50.048 34.6493 50.048 31.684C50.048 28.4413 50.6347 25.5827 51.808 23.108C53.0027 20.6333 54.6133 18.724 56.64 17.38C58.688 16.036 60.9493 15.364 63.424 15.364C65.3227 15.364 67.0293 15.7907 68.544 16.644C70.08 17.4973 71.296 18.756 72.192 20.42C73.088 22.0627 73.536 24.036 73.536 26.34C73.536 29.028 73.1307 31.4493 72.32 33.604C71.5093 35.7587 70.3893 37.5507 68.96 38.98C67.5307 40.4093 65.888 41.4227 64.032 42.02C64.5653 42.3187 65.024 42.756 65.408 43.332C65.8133 43.908 66.24 44.74 66.688 45.828C67.1787 47.0227 67.7013 47.876 68.256 48.388C68.832 48.9 69.536 49.156 70.368 49.156C71.072 49.156 71.7547 48.9107 72.416 48.42C73.0773 47.9507 73.824 47.172 74.656 46.084C74.912 45.7427 75.2 45.572 75.52 45.572ZM60.48 38.884C62.144 38.884 63.6053 38.372 64.864 37.348C66.144 36.324 67.1253 34.9053 67.808 33.092C68.4907 31.2573 68.832 29.188 68.832 26.884C68.832 24.3453 68.2987 22.4253 67.232 21.124C66.1653 19.8013 64.7893 19.14 63.104 19.14C61.4827 19.14 60.032 19.6627 58.752 20.708C57.4933 21.732 56.512 23.1507 55.808 24.964C55.104 26.7773 54.752 28.836 54.752 31.14C54.752 33.6787 55.2853 35.6093 56.352 36.932C57.4187 38.2333 58.7947 38.884 60.48 38.884ZM78.6125 42.66C77.6525 42.66 76.8632 42.2227 76.2445 41.348C75.6472 40.452 75.3485 39.3427 75.3485 38.02C75.3485 36.42 75.4552 34.9587 75.6685 33.636C75.8818 32.292 76.2338 30.8733 76.7245 29.38C76.9378 28.74 77.2365 28.2813 77.6205 28.004C78.0045 27.7267 78.6125 27.588 79.4445 27.588C79.9138 27.588 80.2338 27.6627 80.4045 27.812C80.5965 27.9613 80.6925 28.1853 80.6925 28.484C80.6925 28.6547 80.5752 29.2307 80.3405 30.212C80.1272 31.0013 79.9565 31.716 79.8285 32.356C79.4018 34.596 79.1885 36.0893 79.1885 36.836C79.1885 37.284 79.2418 37.604 79.3485 37.796C79.4552 37.9667 79.6258 38.052 79.8605 38.052C80.1805 38.052 80.5752 37.732 81.0445 37.092C81.5352 36.452 82.0472 35.4813 82.5805 34.18C83.1352 32.8787 83.6685 31.2787 84.1805 29.38C84.3512 28.74 84.6072 28.2813 84.9485 28.004C85.3112 27.7267 85.8445 27.588 86.5485 27.588C87.0392 27.588 87.3805 27.652 87.5725 27.78C87.7645 27.8867 87.8605 28.1 87.8605 28.42C87.8605 28.9533 87.5938 30.4147 87.0605 32.804C86.4632 35.5347 86.1645 37.22 86.1645 37.86C86.1645 38.2653 86.2498 38.5853 86.4205 38.82C86.5912 39.0333 86.8152 39.14 87.0925 39.14C87.5192 39.14 88.0205 38.884 88.5965 38.372C89.1938 37.8387 89.9832 36.9853 90.9645 35.812C91.2205 35.5133 91.5085 35.364 91.8285 35.364C92.1058 35.364 92.3192 35.492 92.4685 35.748C92.6392 36.004 92.7245 36.356 92.7245 36.804C92.7245 37.6573 92.5218 38.3187 92.1165 38.788C91.1992 39.9187 90.2072 40.8467 89.1405 41.572C88.0952 42.2973 86.9005 42.66 85.5565 42.66C84.5325 42.66 83.7752 42.2653 83.2845 41.476C82.8152 40.6867 82.5805 39.5773 82.5805 38.148C82.2178 39.5987 81.6738 40.7187 80.9485 41.508C80.2232 42.276 79.4445 42.66 78.6125 42.66ZM94.3218 25.476C93.4258 25.476 92.7538 25.2733 92.3058 24.868C91.8578 24.4413 91.6338 23.8547 91.6338 23.108C91.6338 22.3613 91.9218 21.7427 92.4978 21.252C93.0951 20.74 93.8311 20.484 94.7058 20.484C95.4951 20.484 96.1351 20.676 96.6258 21.06C97.1164 21.444 97.3618 21.988 97.3618 22.692C97.3618 23.5453 97.0844 24.228 96.5298 24.74C95.9751 25.2307 95.2391 25.476 94.3218 25.476ZM94.0658 42.66C92.6791 42.66 91.6658 42.1693 91.0258 41.188C90.4071 40.2067 90.0978 38.9053 90.0978 37.284C90.0978 36.324 90.2151 35.0973 90.4498 33.604C90.7058 32.0893 91.0258 30.6813 91.4098 29.38C91.6018 28.6973 91.8578 28.228 92.1778 27.972C92.4978 27.716 93.0098 27.588 93.7138 27.588C94.8018 27.588 95.3458 27.9507 95.3458 28.676C95.3458 29.2093 95.1431 30.4467 94.7378 32.388C94.2258 34.7347 93.9698 36.324 93.9698 37.156C93.9698 37.796 94.0551 38.2867 94.2258 38.628C94.3964 38.9693 94.6844 39.14 95.0898 39.14C95.4738 39.14 95.9538 38.8733 96.5298 38.34C97.1058 37.8067 97.8738 36.964 98.8338 35.812C99.0898 35.5133 99.3778 35.364 99.6978 35.364C99.9751 35.364 100.188 35.492 100.338 35.748C100.508 36.004 100.594 36.356 100.594 36.804C100.594 37.6573 100.391 38.3187 99.9858 38.788C97.8738 41.3693 95.9004 42.66 94.0658 42.66ZM104.117 42.66C102.026 42.66 100.394 42.0733 99.2208 40.9C98.0688 39.7053 97.4928 38.1373 97.4928 36.196C97.4928 34.468 97.8341 32.9533 98.5168 31.652C99.1994 30.3507 100.085 29.348 101.173 28.644C102.261 27.94 103.402 27.588 104.597 27.588C105.77 27.588 106.677 27.94 107.317 28.644C107.978 29.3267 108.309 30.212 108.309 31.3C108.309 32.196 108.106 32.9533 107.701 33.572C107.317 34.1907 106.805 34.5 106.165 34.5C105.759 34.5 105.429 34.404 105.173 34.212C104.938 34.02 104.821 33.7533 104.821 33.412C104.821 33.2627 104.842 33.092 104.885 32.9C104.927 32.708 104.959 32.5693 104.981 32.484C105.087 32.164 105.141 31.8653 105.141 31.588C105.141 31.3107 105.066 31.0973 104.917 30.948C104.789 30.7987 104.597 30.724 104.341 30.724C103.85 30.724 103.391 30.948 102.965 31.396C102.538 31.8227 102.197 32.4093 101.941 33.156C101.685 33.9027 101.557 34.724 101.557 35.62C101.557 38.0947 102.634 39.332 104.789 39.332C105.663 39.332 106.602 39.044 107.605 38.468C108.629 37.8707 109.631 36.9853 110.613 35.812C110.869 35.5133 111.157 35.364 111.477 35.364C111.754 35.364 111.967 35.492 112.117 35.748C112.287 36.004 112.373 36.356 112.373 36.804C112.373 37.6147 112.17 38.276 111.765 38.788C110.762 40.0253 109.557 40.9853 108.149 41.668C106.762 42.3293 105.418 42.66 104.117 42.66ZM123.386 39.172C124.261 39.3427 124.698 39.8227 124.698 40.612C124.698 41.1453 124.453 41.6253 123.962 42.052C123.493 42.4573 122.81 42.66 121.914 42.66C120.378 42.66 119.119 42.1907 118.138 41.252C117.178 40.292 116.698 39.044 116.698 37.508C116.698 36.676 117.125 36.0787 117.978 35.716C118.917 35.3107 119.589 34.884 119.994 34.436C120.399 33.9667 120.602 33.4013 120.602 32.74C120.602 32.356 120.517 32.068 120.346 31.876C120.197 31.684 120.005 31.588 119.77 31.588C119.194 31.588 118.554 32.004 117.85 32.836C117.167 33.668 116.527 34.7453 115.93 36.068C115.333 37.3693 114.863 38.7133 114.522 40.1C114.287 41.1027 114.01 41.7853 113.69 42.148C113.391 42.4893 112.911 42.66 112.25 42.66C111.589 42.66 111.098 42.4253 110.778 41.956C110.479 41.4653 110.277 40.7187 110.17 39.716C110.063 38.7133 110.01 37.2413 110.01 35.3C110.01 32.0147 110.341 28.5907 111.002 25.028C111.685 21.4653 112.677 18.4787 113.978 16.068C115.301 13.636 116.879 12.42 118.714 12.42C119.695 12.42 120.485 12.8467 121.082 13.7C121.701 14.532 122.01 15.62 122.01 16.964C122.01 19.1187 121.381 21.3587 120.122 23.684C118.863 25.988 116.815 28.6867 113.978 31.78C113.914 32.8893 113.882 34.0307 113.882 35.204C114.906 32.5373 116.079 30.6067 117.402 29.412C118.725 28.196 119.962 27.588 121.114 27.588C122.181 27.588 123.034 27.9507 123.674 28.676C124.335 29.4013 124.666 30.2973 124.666 31.364C124.666 32.5373 124.367 33.6147 123.77 34.596C123.173 35.5773 122.149 36.452 120.698 37.22C120.826 37.86 121.082 38.308 121.466 38.564C121.871 38.7987 122.511 39.0013 123.386 39.172ZM118.042 15.588C117.658 15.588 117.231 16.1427 116.762 17.252C116.293 18.34 115.834 19.8227 115.386 21.7C114.959 23.556 114.607 25.5827 114.33 27.78C115.653 26.2227 116.741 24.5267 117.594 22.692C118.469 20.8573 118.906 19.1933 118.906 17.7C118.906 17.0173 118.831 16.4947 118.682 16.132C118.533 15.7693 118.319 15.588 118.042 15.588Z" fill="#431730"/>
<path d="M152.458 45.572C152.671 45.572 152.831 45.6787 152.938 45.892C153.066 46.1267 153.13 46.4253 153.13 46.788C153.13 47.4707 152.948 48.1427 152.586 48.804C151.86 50.1267 150.9 51.14 149.706 51.844C148.532 52.5693 147.327 52.932 146.09 52.932C144.831 52.932 143.775 52.7293 142.922 52.324C142.068 51.94 141.343 51.3533 140.746 50.564C140.148 49.796 139.572 48.772 139.018 47.492C138.442 46.1693 137.962 45.1773 137.578 44.516C137.215 43.876 136.831 43.4067 136.426 43.108C136.02 42.8093 135.498 42.596 134.858 42.468C132.49 41.9987 130.58 40.8253 129.13 38.948C127.7 37.0707 126.986 34.6493 126.986 31.684C126.986 28.4413 127.572 25.5827 128.746 23.108C129.94 20.6333 131.551 18.724 133.578 17.38C135.626 16.036 137.887 15.364 140.362 15.364C142.26 15.364 143.967 15.7907 145.482 16.644C147.018 17.4973 148.234 18.756 149.13 20.42C150.026 22.0627 150.474 24.036 150.474 26.34C150.474 29.028 150.068 31.4493 149.258 33.604C148.447 35.7587 147.327 37.5507 145.898 38.98C144.468 40.4093 142.826 41.4227 140.97 42.02C141.503 42.3187 141.962 42.756 142.346 43.332C142.751 43.908 143.178 44.74 143.626 45.828C144.116 47.0227 144.639 47.876 145.194 48.388C145.77 48.9 146.474 49.156 147.306 49.156C148.01 49.156 148.692 48.9107 149.354 48.42C150.015 47.9507 150.762 47.172 151.594 46.084C151.85 45.7427 152.138 45.572 152.458 45.572ZM137.418 38.884C139.082 38.884 140.543 38.372 141.802 37.348C143.082 36.324 144.063 34.9053 144.746 33.092C145.428 31.2573 145.77 29.188 145.77 26.884C145.77 24.3453 145.236 22.4253 144.17 21.124C143.103 19.8013 141.727 19.14 140.042 19.14C138.42 19.14 136.97 19.6627 135.69 20.708C134.431 21.732 133.45 23.1507 132.746 24.964C132.042 26.7773 131.69 28.836 131.69 31.14C131.69 33.6787 132.223 35.6093 133.29 36.932C134.356 38.2333 135.732 38.884 137.418 38.884ZM155.55 42.66C154.59 42.66 153.801 42.2227 153.182 41.348C152.585 40.452 152.286 39.3427 152.286 38.02C152.286 36.42 152.393 34.9587 152.606 33.636C152.819 32.292 153.171 30.8733 153.662 29.38C153.875 28.74 154.174 28.2813 154.558 28.004C154.942 27.7267 155.55 27.588 156.382 27.588C156.851 27.588 157.171 27.6627 157.342 27.812C157.534 27.9613 157.63 28.1853 157.63 28.484C157.63 28.6547 157.513 29.2307 157.278 30.212C157.065 31.0013 156.894 31.716 156.766 32.356C156.339 34.596 156.126 36.0893 156.126 36.836C156.126 37.284 156.179 37.604 156.286 37.796C156.393 37.9667 156.563 38.052 156.798 38.052C157.118 38.052 157.513 37.732 157.982 37.092C158.473 36.452 158.985 35.4813 159.518 34.18C160.073 32.8787 160.606 31.2787 161.118 29.38C161.289 28.74 161.545 28.2813 161.886 28.004C162.249 27.7267 162.782 27.588 163.486 27.588C163.977 27.588 164.318 27.652 164.51 27.78C164.702 27.8867 164.798 28.1 164.798 28.42C164.798 28.9533 164.531 30.4147 163.998 32.804C163.401 35.5347 163.102 37.22 163.102 37.86C163.102 38.2653 163.187 38.5853 163.358 38.82C163.529 39.0333 163.753 39.14 164.03 39.14C164.457 39.14 164.958 38.884 165.534 38.372C166.131 37.8387 166.921 36.9853 167.902 35.812C168.158 35.5133 168.446 35.364 168.766 35.364C169.043 35.364 169.257 35.492 169.406 35.748C169.577 36.004 169.662 36.356 169.662 36.804C169.662 37.6573 169.459 38.3187 169.054 38.788C168.137 39.9187 167.145 40.8467 166.078 41.572C165.033 42.2973 163.838 42.66 162.494 42.66C161.47 42.66 160.713 42.2653 160.222 41.476C159.753 40.6867 159.518 39.5773 159.518 38.148C159.155 39.5987 158.611 40.7187 157.886 41.508C157.161 42.276 156.382 42.66 155.55 42.66ZM181.339 35.364C181.617 35.364 181.83 35.492 181.979 35.748C182.15 36.004 182.235 36.356 182.235 36.804C182.235 37.6573 182.033 38.3187 181.627 38.788C180.838 39.748 179.718 40.6333 178.267 41.444C176.838 42.2547 175.302 42.66 173.659 42.66C171.419 42.66 169.681 42.052 168.443 40.836C167.206 39.62 166.587 37.956 166.587 35.844C166.587 34.372 166.897 33.0067 167.515 31.748C168.134 30.468 168.987 29.4547 170.075 28.708C171.185 27.9613 172.433 27.588 173.819 27.588C175.057 27.588 176.049 27.9613 176.795 28.708C177.542 29.4333 177.915 30.4253 177.915 31.684C177.915 33.156 177.382 34.4253 176.315 35.492C175.27 36.5373 173.489 37.3693 170.971 37.988C171.505 38.9693 172.518 39.46 174.011 39.46C174.971 39.46 176.059 39.1293 177.275 38.468C178.513 37.7853 179.579 36.9 180.475 35.812C180.731 35.5133 181.019 35.364 181.339 35.364ZM173.275 30.724C172.486 30.724 171.814 31.1827 171.259 32.1C170.726 33.0173 170.459 34.1267 170.459 35.428V35.492C171.718 35.1933 172.71 34.7453 173.435 34.148C174.161 33.5507 174.523 32.8573 174.523 32.068C174.523 31.6627 174.406 31.3427 174.171 31.108C173.958 30.852 173.659 30.724 173.275 30.724ZM182.894 42.66C181.934 42.66 181.144 42.2227 180.526 41.348C179.928 40.452 179.63 39.3427 179.63 38.02C179.63 36.42 179.736 34.9587 179.95 33.636C180.163 32.292 180.515 30.8733 181.006 29.38C181.219 28.74 181.518 28.2813 181.902 28.004C182.286 27.7267 182.894 27.588 183.726 27.588C184.195 27.588 184.515 27.6627 184.686 27.812C184.878 27.9613 184.974 28.1853 184.974 28.484C184.974 28.6547 184.856 29.2307 184.622 30.212C184.408 31.0013 184.238 31.716 184.11 32.356C183.683 34.596 183.47 36.0893 183.47 36.836C183.47 37.284 183.523 37.604 183.63 37.796C183.736 37.9667 183.907 38.052 184.142 38.052C184.462 38.052 184.856 37.732 185.326 37.092C185.816 36.452 186.328 35.4813 186.862 34.18C187.416 32.8787 187.95 31.2787 188.462 29.38C188.632 28.74 188.888 28.2813 189.23 28.004C189.592 27.7267 190.126 27.588 190.83 27.588C191.32 27.588 191.662 27.652 191.854 27.78C192.046 27.8867 192.142 28.1 192.142 28.42C192.142 28.9533 191.875 30.4147 191.342 32.804C190.744 35.5347 190.446 37.22 190.446 37.86C190.446 38.2653 190.531 38.5853 190.702 38.82C190.872 39.0333 191.096 39.14 191.374 39.14C191.8 39.14 192.302 38.884 192.878 38.372C193.475 37.8387 194.264 36.9853 195.246 35.812C195.502 35.5133 195.79 35.364 196.11 35.364C196.387 35.364 196.6 35.492 196.75 35.748C196.92 36.004 197.006 36.356 197.006 36.804C197.006 37.6573 196.803 38.3187 196.398 38.788C195.48 39.9187 194.488 40.8467 193.422 41.572C192.376 42.2973 191.182 42.66 189.838 42.66C188.814 42.66 188.056 42.2653 187.566 41.476C187.096 40.6867 186.862 39.5773 186.862 38.148C186.499 39.5987 185.955 40.7187 185.23 41.508C184.504 42.276 183.726 42.66 182.894 42.66ZM205.867 36.324C206.144 36.324 206.358 36.452 206.507 36.708C206.678 36.964 206.763 37.316 206.763 37.764C206.763 38.532 206.582 39.1933 206.219 39.748C205.622 40.6653 204.832 41.38 203.851 41.892C202.891 42.404 201.739 42.66 200.395 42.66C198.347 42.66 196.758 42.052 195.627 40.836C194.496 39.5987 193.931 37.9347 193.931 35.844C193.931 34.372 194.24 33.0067 194.859 31.748C195.478 30.468 196.331 29.4547 197.419 28.708C198.528 27.9613 199.776 27.588 201.163 27.588C202.4 27.588 203.392 27.9613 204.139 28.708C204.886 29.4333 205.259 30.4253 205.259 31.684C205.259 33.156 204.726 34.4253 203.659 35.492C202.614 36.5373 200.822 37.3693 198.283 37.988C198.795 38.9693 199.659 39.46 200.875 39.46C201.75 39.46 202.464 39.2573 203.019 38.852C203.595 38.4467 204.256 37.764 205.003 36.804C205.259 36.484 205.547 36.324 205.867 36.324ZM200.619 30.724C199.83 30.724 199.158 31.1827 198.603 32.1C198.07 33.0173 197.803 34.1267 197.803 35.428V35.492C199.062 35.1933 200.054 34.7453 200.779 34.148C201.504 33.5507 201.867 32.8573 201.867 32.068C201.867 31.6627 201.75 31.3427 201.515 31.108C201.302 30.852 201.003 30.724 200.619 30.724Z" fill="#EAB62F"/>
</svg>
