<svg width="338" height="330" viewBox="0 0 338 330" fill="none" xmlns="http://www.w3.org/2000/svg">
<path d="M152.15 47.7347L67.9003 110.922C60.8795 116.258 56.667 124.543 56.667 133.389V259.764C56.667 275.21 69.3045 287.847 84.7503 287.847H253.25C268.696 287.847 281.334 275.21 281.334 259.764V133.389C281.334 124.543 277.121 116.258 270.1 110.922L185.85 47.7347C180.98 44.1103 175.071 42.1529 169 42.1529C162.93 42.1529 157.021 44.1103 152.15 47.7347ZM176.021 168.493C176.021 180.148 166.613 189.555 154.959 189.555V238.701C154.959 242.633 151.869 245.722 147.938 245.722C144.006 245.722 140.917 242.633 140.917 238.701V189.555C129.262 189.555 119.854 180.148 119.854 168.493V133.389C119.854 129.457 122.944 126.368 126.875 126.368C130.807 126.368 133.896 129.457 133.896 133.389V168.493H140.917V133.389C140.917 129.457 144.006 126.368 147.938 126.368C151.869 126.368 154.959 129.457 154.959 133.389V168.493H161.979V133.389C161.979 129.457 165.069 126.368 169 126.368C172.932 126.368 176.021 129.457 176.021 133.389V168.493ZM204.104 245.722C200.173 245.722 197.084 242.633 197.084 238.701V196.576H190.063C186.131 196.576 183.042 193.487 183.042 189.555V154.451C183.042 142.095 191.046 131.563 202.139 127.913C206.492 126.368 211.125 129.878 211.125 134.653V238.701C211.125 242.633 208.036 245.722 204.104 245.722Z" fill="#EAB62F"/>
</svg>
